<?xml version="1.0" standalone="no"?>
<!DOCTYPE svg PUBLIC "-//W3C//DTD SVG 20010904//EN"
 "http://www.w3.org/TR/2001/REC-SVG-20010904/DTD/svg10.dtd">
<svg version="1.0" xmlns="http://www.w3.org/2000/svg"
 width="512.000000pt" height="512.000000pt" viewBox="0 0 512.000000 512.000000"
 preserveAspectRatio="xMidYMid meet">
<metadata>
Created by potrace 1.14, written by Peter Selinger 2001-2017
</metadata>
<g transform="translate(0.000000,512.000000) scale(0.100000,-0.100000)"
fill="#000000" stroke="none">
<path d="M2161 5024 c0 -11 3 -14 6 -6 3 7 2 16 -1 19 -3 4 -6 -2 -5 -13z"/>
<path d="M2865 5030 c-3 -5 -2 -10 4 -10 5 0 13 5 16 10 3 6 2 10 -4 10 -5 0
-13 -4 -16 -10z"/>
<path d="M2495 5020 c-4 -7 -23 -10 -49 -8 -31 3 -45 0 -58 -15 -13 -14 -32
-19 -77 -20 -32 -1 -57 -5 -55 -8 6 -10 -17 -16 -56 -14 -19 1 -29 0 -22 -2
18 -7 4 -23 -21 -23 -29 0 -108 -30 -132 -50 -11 -9 -27 -20 -35 -24 -28 -13
-60 -33 -78 -49 -24 -22 -162 -97 -178 -97 -8 0 -11 -6 -8 -15 4 -10 -10 -22
-47 -40 -29 -14 -60 -25 -68 -26 -11 0 -12 -2 -3 -6 26 -10 11 -25 -21 -20
-31 5 -67 -10 -67 -29 0 -4 5 -3 12 4 7 7 26 12 43 12 l30 -1 -36 -17 c-34
-16 -77 -52 -71 -59 8 -10 0 -23 -15 -24 -11 0 -13 -3 -5 -6 6 -2 9 -9 6 -14
-3 -6 -11 -5 -20 2 -16 13 -19 -2 -4 -17 7 -7 0 -9 -22 -7 -24 3 -29 2 -18 -6
8 -5 18 -7 22 -5 13 8 9 -13 -5 -28 -6 -7 -21 -32 -32 -55 -11 -22 -23 -39
-26 -37 -4 2 -10 -11 -14 -29 -4 -17 -9 -26 -12 -19 -2 6 -9 12 -14 12 -12 0
-12 -27 0 -32 6 -1 -6 -28 -25 -58 -18 -30 -34 -62 -34 -71 0 -10 -5 -21 -10
-24 -5 -3 -10 -13 -10 -22 0 -26 -32 -83 -46 -83 -11 0 -12 -4 -4 -19 13 -25
13 -61 0 -61 -6 0 -10 -33 -10 -80 0 -66 -3 -80 -16 -80 -8 0 -12 -5 -9 -11 4
-6 13 -8 21 -5 8 3 14 1 14 -5 0 -5 -12 -14 -27 -20 -27 -11 -27 -11 -7 -19
16 -6 22 -20 27 -55 2 -26 9 -50 14 -54 5 -3 9 -19 8 -36 -3 -36 5 -52 16 -34
4 7 6 -11 5 -42 -1 -35 -6 -53 -14 -51 -7 1 -12 -4 -12 -12 0 -9 8 -12 24 -9
21 4 23 2 19 -20 -3 -14 0 -28 6 -31 5 -4 8 -13 4 -21 -3 -8 0 -15 6 -15 6 0
11 -5 11 -11 0 -5 -4 -8 -9 -4 -5 3 -12 1 -16 -5 -3 -5 -1 -10 4 -10 14 0 14
-36 1 -61 -9 -16 -7 -19 9 -19 15 0 18 5 13 22 -4 15 -2 19 7 13 7 -4 10 -16
8 -27 -4 -12 2 -29 14 -41 23 -25 26 -52 3 -43 -10 4 -13 2 -8 -6 5 -8 -1 -9
-20 -4 -23 6 -27 4 -24 -10 2 -11 13 -18 30 -18 14 -1 24 2 21 7 -3 5 1 13 8
18 21 13 29 11 22 -8 -5 -12 -2 -15 10 -10 10 4 17 2 17 -5 0 -6 3 -9 6 -6 3
3 19 -7 36 -23 l31 -28 -16 -43 c-18 -45 -23 -98 -9 -98 4 0 6 -21 4 -47 -2
-41 -1 -45 9 -28 7 11 16 22 20 25 4 3 9 54 10 113 2 68 7 111 14 117 13 11
42 9 61 -3 7 -4 15 1 19 11 10 27 19 2 44 -118 26 -122 58 -197 100 -227 93
-70 413 -74 541 -8 15 8 30 12 32 9 7 -6 58 61 58 76 0 6 23 69 52 140 56 143
73 163 129 151 33 -7 35 -9 56 -91 13 -47 20 -93 17 -102 -8 -26 46 -128 67
-128 10 0 30 -11 46 -24 57 -48 116 -59 301 -54 272 8 315 42 349 281 8 62 22
119 29 127 10 10 14 11 14 2 0 -14 50 -9 59 6 3 5 16 6 27 1 20 -7 23 -18 30
-116 4 -59 7 -112 6 -116 -2 -5 1 -6 6 -3 5 3 7 -17 4 -44 -2 -27 -1 -62 3
-77 13 -51 24 4 18 92 -6 72 -5 79 10 67 14 -12 16 -9 15 19 -1 19 -12 60 -25
92 -13 33 -23 60 -21 61 2 1 21 14 44 29 22 15 45 27 52 27 7 0 12 7 12 15 0
24 12 18 52 -26 21 -23 41 -39 44 -36 4 3 -13 24 -36 47 -35 34 -40 43 -29 56
8 9 15 11 19 5 3 -6 13 -2 24 10 17 21 17 21 -13 14 -30 -6 -43 6 -20 20 5 4
8 12 6 18 -4 14 16 37 32 37 6 0 11 5 11 11 0 6 -7 9 -15 5 -17 -6 -21 9 -5
19 13 8 13 52 -1 60 -6 5 -5 11 5 18 13 10 14 19 7 44 -8 27 -6 34 12 46 18
12 21 24 22 75 0 34 3 62 8 62 4 0 7 -7 7 -15 0 -8 5 -15 10 -15 6 0 10 9 10
21 0 12 5 19 13 16 6 -2 11 -10 9 -16 -4 -20 16 -12 21 9 3 11 1 18 -4 14 -13
-8 -31 45 -23 70 4 11 8 30 9 41 2 11 8 19 14 17 6 -1 11 3 11 9 0 5 5 7 10 4
7 -4 10 28 9 94 -1 56 -6 101 -11 101 -4 0 -8 19 -9 43 0 32 -2 37 -9 22 -7
-19 -8 -18 -13 5 -11 58 0 107 16 68 4 -8 6 -9 6 -2 2 21 -23 33 -36 19 -8 -9
-9 -16 -3 -20 12 -7 13 -25 2 -25 -9 0 -52 98 -52 118 0 6 -5 12 -11 12 -10 0
-107 100 -122 126 -4 7 -14 11 -22 8 -18 -7 -20 12 -2 20 6 3 -1 2 -17 -1 -19
-4 -27 -2 -22 5 4 6 -1 8 -13 5 -13 -3 -21 1 -25 14 -6 20 -126 60 -145 48 -6
-3 -11 0 -11 7 0 10 -3 9 -9 -1 -8 -12 -11 -8 -16 15 -10 45 -13 51 -14 26 -2
-45 -21 -10 -21 38 0 26 -3 50 -7 52 -17 7 -83 97 -83 112 0 9 -4 15 -9 14 -6
-2 -37 20 -70 47 -43 36 -60 57 -61 75 -1 23 -2 24 -14 7 -12 -15 -15 -15 -26
-2 -10 12 -10 15 1 15 18 0 -30 25 -65 34 -15 4 -44 17 -64 30 -49 30 -117 56
-147 56 -16 0 -25 6 -25 15 0 8 -4 15 -10 15 -5 0 -7 -6 -4 -13 3 -10 -7 -13
-38 -12 -70 3 -129 16 -122 27 4 5 -4 5 -16 -2 -18 -9 -24 -9 -30 0 -6 9 -9 9
-15 0z m400 -108 c-3 -3 -11 0 -18 7 -9 10 -8 11 6 5 10 -3 15 -9 12 -12z
m515 -462 c0 -5 -7 -7 -15 -4 -8 4 -15 8 -15 10 0 2 7 4 15 4 8 0 15 -4 15
-10z m50 -16 c0 -2 -7 -4 -15 -4 -8 0 -15 4 -15 10 0 5 7 7 15 4 8 -4 15 -8
15 -10z m-525 -349 c134 -19 265 -55 265 -73 0 -7 4 -10 10 -7 16 10 106 -87
130 -140 12 -27 28 -63 36 -79 8 -16 14 -39 14 -50 0 -12 16 -57 35 -101 19
-44 35 -86 35 -93 0 -7 7 -26 15 -41 20 -39 25 -69 32 -195 l6 -109 -39 7
c-45 8 -75 13 -127 22 -20 3 -40 10 -43 15 -3 5 -10 9 -15 9 -6 0 -7 -5 -3
-12 4 -7 3 -8 -5 -4 -6 4 -9 11 -6 16 3 6 -12 13 -34 16 -24 4 -38 11 -34 17
3 6 1 7 -6 3 -6 -4 -19 -2 -28 6 -12 9 -15 9 -9 1 8 -14 -3 -17 -28 -7 -9 3
-13 10 -10 15 3 5 2 9 -3 8 -12 -3 -75 27 -73 35 1 3 0 10 -3 14 -2 4 -2 1 0
-7 3 -11 0 -11 -11 -2 -9 8 -21 8 -40 1 -17 -6 -35 -6 -52 0 -33 13 -131 13
-139 0 -3 -5 -16 -10 -27 -10 -12 0 -19 -3 -15 -6 3 -4 0 -13 -8 -21 -8 -8
-15 -25 -15 -38 0 -13 -6 -26 -12 -29 -7 -2 4 -3 25 -1 21 2 35 0 32 -6 -4 -5
-14 -9 -24 -9 -10 0 -47 -9 -83 -21 -56 -17 -85 -20 -199 -16 -166 5 -184 9
-222 44 -16 15 -27 22 -22 14 5 -9 3 -12 -6 -9 -8 3 -13 10 -12 16 1 6 -7 7
-20 4 -20 -5 -21 -4 -8 12 8 9 12 18 10 20 -15 11 -150 39 -198 40 -33 0 -57
4 -54 9 2 4 0 7 -6 7 -5 0 -12 -4 -15 -9 -4 -5 -23 -8 -44 -6 -20 1 -43 -2
-49 -7 -7 -6 -21 -7 -30 -3 -16 7 -15 9 6 14 14 4 26 12 29 19 3 10 -5 9 -33
-2 -21 -9 -39 -16 -40 -16 -5 0 0 25 8 38 11 17 -1 15 -19 -3 -9 -9 -11 -15
-4 -15 6 0 8 -5 5 -10 -5 -8 -11 -7 -21 0 -10 9 -23 4 -59 -25 -25 -21 -45
-39 -45 -40 0 -2 -2 -10 -5 -18 -5 -10 2 -13 27 -9 32 4 32 3 13 -12 -20 -15
-19 -15 5 -11 14 3 46 6 72 6 29 2 45 6 41 12 -4 6 0 8 11 4 10 -4 15 -3 11 3
-5 9 94 60 117 60 7 0 2 -9 -10 -21 -12 -11 -27 -17 -34 -13 -7 4 -8 3 -4 -4
4 -7 -3 -17 -18 -23 -14 -7 -23 -15 -21 -20 3 -4 -29 -10 -71 -14 -41 -4 -78
-13 -80 -19 -3 -7 -36 -12 -85 -13 -59 -1 -85 -6 -99 -18 -29 -26 -35 -3 -34
130 1 126 22 225 65 301 10 19 19 43 19 53 0 10 7 21 15 25 8 3 15 12 15 21 0
8 4 15 9 15 5 0 13 10 17 22 3 12 12 28 18 34 6 7 22 30 34 51 13 21 41 52 62
68 22 17 39 35 40 40 0 10 49 43 80 55 8 3 46 21 84 40 l69 33 176 3 c252 3
253 3 246 14 -8 13 1 13 25 0 13 -7 26 -7 37 -1 56 29 273 32 458 6z m852 -77
c-3 -8 -6 -5 -6 6 -1 11 2 17 5 13 3 -3 4 -12 1 -19z m-2033 -671 c3 3 6 1 6
-5 0 -7 6 -12 14 -12 21 0 28 -17 10 -24 -8 -3 -13 -2 -10 3 9 14 -20 21 -34
8 -10 -10 -11 -8 -6 8 6 16 2 14 -22 -8 -19 -18 -32 -25 -36 -18 -4 6 0 11 9
11 11 0 15 5 11 15 -3 8 0 14 7 12 7 -1 11 4 9 11 -2 10 2 10 17 3 10 -6 21
-7 25 -4z m1096 9 c0 -2 -7 -7 -16 -10 -8 -3 -12 -2 -9 4 6 10 25 14 25 6z
m47 -2 c-3 -3 -12 -4 -19 -1 -8 3 -5 6 6 6 11 1 17 -2 13 -5z m40 -10 c-3 -3
-12 -4 -19 -1 -8 3 -5 6 6 6 11 1 17 -2 13 -5z m-1092 -25 c-3 -8 -17 -20 -32
-26 -41 -20 -52 -15 -17 6 18 11 35 25 39 31 9 15 17 7 10 -11z m1224 5 c13
-13 -10 -12 -35 2 l-29 16 30 -7 c16 -4 32 -9 34 -11z m-308 -41 c-8 -15 -10
-15 -11 -2 0 17 10 32 18 25 2 -3 -1 -13 -7 -23z m-1046 -3 c-3 -5 -12 -10
-18 -10 -7 0 -6 4 3 10 19 12 23 12 15 0z m35 -5 c-7 -8 -17 -15 -22 -15 -6 0
-5 7 2 15 7 8 17 15 22 15 6 0 5 -7 -2 -15z m1452 -1 c27 -3 51 -11 55 -16 4
-8 -5 -9 -27 -5 -18 4 -94 8 -169 8 -119 1 -128 3 -72 10 34 4 68 10 75 12 12
4 62 1 138 -9z m-1123 -30 c2 -2 -14 -4 -37 -4 -23 0 -42 5 -42 10 0 10 67 4
79 -6z m176 -14 c3 -5 1 -10 -4 -10 -6 0 -11 5 -11 10 0 6 2 10 4 10 3 0 8 -4
11 -10z m-288 -11 c15 -5 79 -12 143 -15 129 -5 214 -25 230 -54 16 -31 11
-115 -10 -165 -11 -26 -20 -65 -20 -86 0 -74 -58 -150 -129 -169 -185 -49
-412 -22 -483 57 -18 20 -56 148 -59 203 -6 82 2 159 16 173 8 8 40 23 72 33
32 9 62 21 68 26 13 12 138 10 172 -3z m1254 -1 c105 -17 112 -30 106 -183 -3
-92 -10 -134 -27 -181 -22 -58 -26 -63 -79 -88 -80 -37 -165 -50 -285 -44 -93
5 -110 9 -167 39 -80 43 -110 91 -134 214 -3 17 6 1 20 -35 24 -62 25 -63 21
-24 -5 54 -36 120 -47 102 -6 -9 -9 -4 -9 14 0 15 -4 30 -10 33 -15 9 -12 42
6 76 21 42 81 66 183 73 46 3 86 8 89 11 10 10 263 5 333 -7z m-1511 -8 c0 -5
-4 -10 -10 -10 -5 0 -10 5 -10 10 0 6 5 10 10 10 6 0 10 -4 10 -10z m1824 -46
c9 -24 0 -28 -23 -12 -12 8 -18 18 -14 21 12 12 31 7 37 -9z m-2077 -71 c-15
-16 -17 -16 -17 -1 0 9 6 18 13 21 20 7 22 -2 4 -20z m874 -174 c-5 -13 -10
-19 -10 -12 -1 15 10 45 15 40 3 -2 0 -15 -5 -28z"/>
<path d="M3150 3390 c0 -5 5 -10 11 -10 5 0 7 5 4 10 -3 6 -8 10 -11 10 -2 0
-4 -4 -4 -10z"/>
<path d="M3140 3366 c0 -2 8 -10 18 -17 15 -13 16 -12 3 4 -13 16 -21 21 -21
13z"/>
<path d="M3203 3356 c0 -8 6 -12 14 -9 7 3 13 0 13 -6 0 -6 -7 -11 -15 -11 -8
0 -15 -4 -15 -10 0 -5 5 -10 11 -10 6 0 24 -9 41 -21 16 -12 40 -22 54 -23 14
0 22 -6 20 -13 -3 -7 1 -10 10 -6 7 3 14 6 14 8 0 13 -35 63 -60 86 -35 32
-51 39 -28 12 8 -10 19 -25 23 -33 8 -13 7 -13 -10 0 -11 8 -29 23 -39 33 -24
21 -33 22 -33 3z"/>
<path d="M3077 3349 c7 -7 15 -10 18 -7 3 3 -2 9 -12 12 -14 6 -15 5 -6 -5z"/>
<path d="M1858 3193 c7 -3 16 -2 19 1 4 3 -2 6 -13 5 -11 0 -14 -3 -6 -6z"/>
<path d="M2213 3163 c9 -2 23 -2 30 0 6 3 -1 5 -18 5 -16 0 -22 -2 -12 -5z"/>
<path d="M1650 3111 c0 -20 2 -21 15 -11 8 7 15 18 14 24 0 6 -3 5 -6 -3 -5
-11 -7 -11 -14 0 -6 10 -9 7 -9 -10z"/>
<path d="M1915 3083 c-127 -29 -173 -46 -183 -68 -10 -21 -8 -26 16 -38 40
-20 99 -11 106 16 5 19 8 20 16 7 8 -13 10 -12 10 3 0 10 4 16 8 13 5 -3 15 6
22 19 19 35 26 31 22 -12 -5 -50 25 -83 74 -83 41 0 84 39 84 76 0 24 14 32
25 15 7 -12 67 -42 72 -37 7 7 -21 46 -33 46 -7 0 -14 6 -17 13 -11 28 -148
47 -222 30z m90 -43 c3 -6 -1 -13 -10 -16 -19 -8 -30 0 -20 15 8 14 22 14 30
1z m55 0 c0 -5 -4 -10 -9 -10 -6 0 -13 5 -16 10 -3 6 1 10 9 10 9 0 16 -4 16
-10z"/>
<path d="M2875 3106 c-38 -19 -69 -46 -84 -73 -22 -42 -10 -39 42 11 l52 51 5
-42 c13 -109 123 -125 160 -24 8 23 17 41 21 41 3 0 22 -16 42 -36 34 -35 37
-36 71 -24 30 9 36 16 36 38 -1 59 -16 64 -172 68 -110 3 -150 1 -173 -10z
m135 -31 c10 -12 10 -15 -4 -15 -9 0 -16 7 -16 15 0 8 2 15 4 15 2 0 9 -7 16
-15z m-52 -13 c2 -7 -3 -12 -12 -12 -9 0 -16 7 -16 16 0 17 22 14 28 -4z"/>
<path d="M2650 5020 c0 -5 9 -10 21 -10 11 0 17 5 14 10 -3 6 -13 10 -21 10
-8 0 -14 -4 -14 -10z"/>
<path d="M2930 5020 c0 -5 5 -10 11 -10 5 0 7 5 4 10 -3 6 -8 10 -11 10 -2 0
-4 -4 -4 -10z"/>
<path d="M2288 4993 c6 -2 18 -2 25 0 6 3 1 5 -13 5 -14 0 -19 -2 -12 -5z"/>
<path d="M2138 4943 c7 -3 16 -2 19 1 4 3 -2 6 -13 5 -11 0 -14 -3 -6 -6z"/>
<path d="M2050 4930 c0 -5 7 -10 16 -10 8 0 12 5 9 10 -3 6 -10 10 -16 10 -5
0 -9 -4 -9 -10z"/>
<path d="M2006 4905 c-8 -8 -19 -15 -25 -15 -6 0 -11 -4 -11 -10 0 -16 13 -12
45 15 17 13 25 24 18 25 -6 0 -18 -7 -27 -15z"/>
<path d="M1928 4903 c7 -3 16 -2 19 1 4 3 -2 6 -13 5 -11 0 -14 -3 -6 -6z"/>
<path d="M1940 4859 c0 -5 5 -7 10 -4 6 3 10 8 10 11 0 2 -4 4 -10 4 -5 0 -10
-5 -10 -11z"/>
<path d="M3095 4840 c3 -5 8 -10 11 -10 2 0 4 5 4 10 0 6 -5 10 -11 10 -5 0
-7 -4 -4 -10z"/>
<path d="M1818 4823 c6 -2 18 -2 25 0 6 3 1 5 -13 5 -14 0 -19 -2 -12 -5z"/>
<path d="M1856 4811 c-4 -5 -2 -12 3 -15 5 -4 12 -2 15 3 4 5 2 12 -3 15 -5 4
-12 2 -15 -3z"/>
<path d="M3121 4807 c2 -1 13 -9 24 -17 19 -14 19 -14 6 3 -7 9 -18 17 -24 17
-6 0 -8 -1 -6 -3z"/>
<path d="M1680 4760 c0 -5 5 -10 10 -10 6 0 10 5 10 10 0 6 -4 10 -10 10 -5 0
-10 -4 -10 -10z"/>
<path d="M1650 4686 c0 -10 28 -13 41 -5 10 6 7 9 -13 9 -16 0 -28 -2 -28 -4z"/>
<path d="M1600 4670 c0 -5 5 -10 11 -10 5 0 7 5 4 10 -3 6 -8 10 -11 10 -2 0
-4 -4 -4 -10z"/>
<path d="M3267 4659 c4 -13 8 -18 11 -10 2 7 -1 18 -6 23 -8 8 -9 4 -5 -13z"/>
<path d="M3306 4645 c-11 -8 -16 -15 -10 -15 5 0 18 7 28 15 11 8 16 15 10 15
-5 0 -18 -7 -28 -15z"/>
<path d="M1330 4394 c0 -4 11 -17 25 -30 28 -26 29 -25 15 10 -8 22 -40 38
-40 20z"/>
<path d="M3671 4388 c0 -9 -7 -18 -13 -21 -7 -2 -10 -8 -5 -12 11 -13 29 11
24 31 -4 16 -5 16 -6 2z"/>
<path d="M1390 4380 c0 -5 5 -10 11 -10 5 0 7 5 4 10 -3 6 -8 10 -11 10 -2 0
-4 -4 -4 -10z"/>
<path d="M1280 4303 c0 -23 17 -49 26 -40 4 3 1 13 -5 21 -7 8 -10 20 -6 26 3
5 1 10 -4 10 -6 0 -11 -8 -11 -17z"/>
<path d="M3712 4290 c12 -16 23 -30 25 -30 9 0 1 19 -16 38 -28 33 -35 26 -9
-8z"/>
<path d="M1306 4235 c-3 -8 -1 -15 4 -15 6 0 10 7 10 15 0 8 -2 15 -4 15 -2 0
-6 -7 -10 -15z"/>
<path d="M1260 4181 c0 -11 5 -23 10 -26 6 -3 10 3 10 14 0 11 -4 23 -10 26
-5 3 -10 -3 -10 -14z"/>
<path d="M1210 4130 c0 -5 5 -10 10 -10 6 0 10 5 10 10 0 6 -4 10 -10 10 -5 0
-10 -4 -10 -10z"/>
<path d="M1200 4091 c0 -6 4 -13 10 -16 6 -3 7 1 4 9 -7 18 -14 21 -14 7z"/>
<path d="M3910 4036 c0 -13 -5 -26 -12 -28 -7 -3 -6 -7 5 -11 14 -5 17 0 17
28 0 19 -2 35 -5 35 -3 0 -5 -11 -5 -24z"/>
<path d="M3860 4034 c0 -8 5 -12 10 -9 6 4 8 11 5 16 -9 14 -15 11 -15 -7z"/>
<path d="M3870 3932 c0 -18 5 -32 10 -32 6 0 8 11 4 28 -10 39 -14 40 -14 4z"/>
<path d="M3900 3935 c0 -14 2 -25 4 -25 2 0 6 11 8 25 3 14 1 25 -3 25 -5 0
-9 -11 -9 -25z"/>
<path d="M1141 3846 c-7 -8 -11 -27 -8 -43 4 -27 4 -27 6 5 2 46 21 40 21 -8
0 -22 3 -40 8 -40 11 0 8 93 -4 97 -6 2 -16 -3 -23 -11z"/>
<path d="M3890 3795 c0 -8 5 -15 10 -15 6 0 10 7 10 15 0 8 -4 15 -10 15 -5 0
-10 -7 -10 -15z"/>
<path d="M1122 3660 c0 -14 2 -19 5 -12 2 6 2 18 0 25 -3 6 -5 1 -5 -13z"/>
<path d="M1202 3510 c0 -19 2 -27 5 -17 2 9 2 25 0 35 -3 9 -5 1 -5 -18z"/>
<path d="M3736 3491 c-4 -7 -5 -15 -2 -18 9 -9 19 4 14 18 -4 11 -6 11 -12 0z"/>
<path d="M1210 3451 c0 -5 5 -13 10 -16 6 -3 10 -2 10 4 0 5 -4 13 -10 16 -5
3 -10 2 -10 -4z"/>
<path d="M3737 3205 c-4 -8 -2 -17 3 -20 6 -4 10 3 10 14 0 25 -6 27 -13 6z"/>
<path d="M3760 3137 c0 -8 7 -21 16 -28 14 -11 15 -10 12 11 -3 26 -28 41 -28
17z"/>
<path d="M3746 3094 c-3 -9 -2 -22 2 -31 6 -10 9 -5 9 16 0 35 -2 38 -11 15z"/>
<path d="M3643 3068 c-29 -14 -29 -33 2 -83 42 -68 54 -100 63 -166 l9 -64 7
47 c5 26 6 82 4 125 -3 62 -9 86 -29 115 -27 41 -25 41 -56 26z"/>
<path d="M1269 3037 c-21 -25 -25 -40 -21 -69 2 -21 8 -38 13 -38 5 0 6 16 3
35 -4 28 0 42 22 70 33 44 19 45 -17 2z"/>
<path d="M3816 3044 c-11 -28 -6 -38 9 -18 8 10 15 22 15 27 0 13 -18 7 -24
-9z"/>
<path d="M3770 3007 c0 -23 4 -36 10 -32 13 8 13 35 0 55 -7 11 -10 5 -10 -23z"/>
<path d="M1327 2993 c-13 -23 -15 -62 -4 -76 11 -16 14 -15 40 7 33 28 34 40
5 60 -25 18 -35 20 -41 9z"/>
<path d="M2565 2960 c-3 -5 -1 -10 4 -10 6 0 11 5 11 10 0 6 -2 10 -4 10 -3 0
-8 -4 -11 -10z"/>
<path d="M3781 2900 c0 -51 2 -61 10 -47 6 10 8 28 5 40 -3 13 1 25 12 33 16
12 16 13 0 14 -9 0 -19 6 -21 13 -3 6 -6 -17 -6 -53z"/>
<path d="M2570 2931 c0 -6 5 -13 10 -16 6 -3 10 1 10 9 0 9 -4 16 -10 16 -5 0
-10 -4 -10 -9z"/>
<path d="M1256 2893 c-11 -11 -7 -20 9 -20 8 0 15 4 15 8 0 11 -16 20 -24 12z"/>
<path d="M1284 2791 c0 -41 3 -65 7 -55 6 15 8 12 8 -11 2 -60 35 -275 43
-275 11 0 10 33 -2 65 -5 14 -14 83 -19 152 -6 69 -14 129 -20 132 -5 3 -11
20 -13 36 -2 17 -4 -3 -4 -44z"/>
<path d="M1455 2800 c-3 -11 -2 -27 2 -35 6 -11 9 -5 9 20 0 40 -2 43 -11 15z"/>
<path d="M3766 2784 c-4 -19 -9 -43 -12 -52 -3 -9 4 1 15 22 22 42 27 66 12
66 -5 0 -12 -16 -15 -36z"/>
<path d="M3810 2791 c0 -6 5 -13 10 -16 6 -3 10 1 10 9 0 9 -4 16 -10 16 -5 0
-10 -4 -10 -9z"/>
<path d="M2660 2766 c0 -11 30 -39 36 -34 2 3 -5 13 -16 23 -11 10 -20 15 -20
11z"/>
<path d="M3822 2735 c-6 -13 -7 -27 -3 -30 5 -2 11 8 14 23 7 35 3 38 -11 7z"/>
<path d="M1281 2684 c0 -11 3 -14 6 -6 3 7 2 16 -1 19 -3 4 -6 -2 -5 -13z"/>
<path d="M3749 2693 c-4 -48 -44 -170 -60 -187 -13 -15 -11 -26 6 -26 10 0 17
14 21 40 4 22 11 40 16 40 10 0 7 -28 -7 -65 -6 -16 -5 -18 5 -8 8 7 14 41 16
84 1 39 7 76 13 82 14 14 14 47 1 47 -5 0 -10 -3 -11 -7z"/>
<path d="M1292 2555 c0 -16 2 -22 5 -12 2 9 2 23 0 30 -3 6 -5 -1 -5 -18z"/>
<path d="M2277 2467 c-10 -26 11 -39 64 -43 l54 -3 -33 29 c-34 31 -76 39 -85
17z"/>
<path d="M2655 2473 c-51 -10 -83 -25 -113 -53 -22 -20 -44 -30 -65 -30 -27
-1 -29 -2 -15 -11 13 -7 30 -4 65 12 27 12 70 22 96 24 57 2 91 27 67 48 -8 8
-24 12 -35 10z"/>
<path d="M3657 2419 c-15 -28 -27 -59 -27 -69 0 -22 -41 -50 -75 -50 -14 0
-37 7 -50 16 -13 9 -29 13 -35 9 -13 -8 -13 -75 0 -75 6 0 10 10 10 21 0 17 3
19 13 11 35 -29 147 18 147 61 0 22 20 32 32 16 7 -12 8 -11 7 1 -2 8 1 34 5
58 4 24 6 45 3 48 -2 2 -16 -19 -30 -47z"/>
<path d="M1350 2421 c0 -11 4 -21 10 -21 5 0 14 -19 21 -42 6 -24 22 -54 35
-67 29 -29 30 -23 6 21 -11 18 -24 50 -31 70 -15 46 -41 71 -41 39z"/>
<path d="M2698 2373 c6 -2 18 -2 25 0 6 3 1 5 -13 5 -14 0 -19 -2 -12 -5z"/>
<path d="M1517 2287 c-3 -8 -1 -20 4 -28 6 -10 9 -7 9 14 0 29 -5 35 -13 14z"/>
<path d="M1444 2255 c-3 -8 1 -24 10 -37 9 -12 16 -35 16 -51 0 -19 4 -27 13
-24 15 5 15 30 -3 85 -14 43 -26 53 -36 27z"/>
<path d="M3495 2250 c3 -5 8 -10 11 -10 2 0 4 5 4 10 0 6 -5 10 -11 10 -5 0
-7 -4 -4 -10z"/>
<path d="M1530 2226 c0 -8 5 -18 10 -21 6 -3 10 3 10 14 0 12 -4 21 -10 21 -5
0 -10 -6 -10 -14z"/>
<path d="M3456 2187 c3 -10 9 -15 12 -12 3 3 0 11 -7 18 -10 9 -11 8 -5 -6z"/>
<path d="M3460 2144 c0 -9 5 -14 12 -12 18 6 21 28 4 28 -9 0 -16 -7 -16 -16z"/>
<path d="M3411 2084 c-24 -69 -23 -96 2 -47 14 27 33 113 25 113 -2 0 -14 -30
-27 -66z"/>
<path d="M1560 2120 c0 -5 -5 -9 -12 -7 -6 1 -13 -5 -15 -14 -3 -13 4 -17 31
-17 35 0 35 0 19 24 -17 26 -23 30 -23 14z"/>
<path d="M2275 2083 c-22 -8 -64 -21 -94 -29 -49 -14 -106 -42 -99 -50 8 -7
788 -13 788 -6 0 22 -30 41 -73 47 -27 3 -73 15 -102 26 -53 20 -93 18 -64 -3
9 -6 -6 -7 -41 -3 -30 4 -59 11 -64 16 -5 4 -17 4 -27 -2 -10 -5 -22 -9 -26
-8 -20 3 -33 -2 -30 -12 1 -7 -21 -13 -60 -15 -70 -4 -88 13 -20 19 l42 4 -50
1 c-32 2 -45 5 -36 11 25 16 -4 19 -44 4z m265 -32 c0 -5 -18 -8 -40 -8 -52 2
-52 17 0 17 22 0 40 -4 40 -9z m70 -11 c0 -13 -20 -13 -40 0 -12 8 -9 10 13
10 15 0 27 -4 27 -10z"/>
<path d="M3431 2034 c0 -11 3 -14 6 -6 3 7 2 16 -1 19 -3 4 -6 -2 -5 -13z"/>
<path d="M1600 2026 c0 -8 5 -18 10 -21 6 -3 10 1 10 9 0 8 -4 18 -10 21 -5 3
-10 -1 -10 -9z"/>
<path d="M1611 1977 c-9 -12 -7 -16 9 -20 21 -5 25 0 11 21 -6 10 -10 10 -20
-1z"/>
<path d="M3342 1929 c-26 -45 -27 -49 -6 -49 11 0 14 5 10 16 -8 22 14 50 25
32 13 -20 17 -5 4 18 -10 21 -12 20 -33 -17z"/>
<path d="M1680 1886 c0 -9 5 -16 10 -16 6 0 10 4 10 9 0 6 -4 13 -10 16 -5 3
-10 -1 -10 -9z"/>
<path d="M1725 1834 c4 -10 13 -34 19 -51 6 -18 16 -35 23 -38 15 -5 17 11 3
20 -5 3 -10 15 -10 26 0 10 -10 29 -22 41 -19 19 -21 19 -13 2z"/>
<path d="M2340 1841 c0 -13 24 -19 85 -23 66 -3 195 12 195 23 0 5 -63 9 -140
9 -80 0 -140 -4 -140 -9z"/>
<path d="M3245 1797 l-40 -42 -4 -162 -3 -162 34 -43 c59 -73 74 -145 56 -252
-9 -51 -36 -118 -50 -124 -5 -2 -8 -8 -8 -13 0 -5 -18 -39 -40 -75 -22 -36
-37 -71 -33 -77 3 -6 1 -7 -5 -3 -8 4 -21 -12 -36 -46 -44 -99 -168 -209 -316
-281 -126 -61 -240 -127 -240 -139 0 -15 -64 -5 -77 12 -10 13 -18 13 -72 -2
-48 -12 -63 -13 -69 -4 -7 12 -233 126 -250 126 -13 0 -159 153 -176 185 -10
17 -37 57 -61 90 -25 33 -52 73 -61 90 -9 16 -23 35 -30 43 -8 7 -17 25 -21
40 -3 15 -14 42 -24 59 -10 18 -26 70 -36 116 l-17 84 25 57 c16 39 36 66 61
84 l38 27 0 90 c0 50 -3 126 -6 171 l-7 80 -28 -4 c-36 -5 -38 -22 -4 -22 23
0 25 -4 25 -40 0 -27 -4 -40 -13 -40 -19 0 -72 -27 -134 -66 -57 -38 -86 -45
-59 -15 16 18 16 19 -14 23 -30 4 -40 -5 -19 -17 6 -5 4 -12 -8 -22 -10 -8
-13 -12 -8 -9 6 2 16 1 23 -3 9 -5 5 -11 -13 -21 -24 -13 -53 -84 -61 -151 -7
-57 -23 -79 -71 -100 -27 -12 -55 -25 -63 -30 -8 -5 -53 -27 -100 -50 -47 -22
-97 -47 -113 -55 -15 -9 -36 -12 -47 -9 -14 4 -20 2 -18 -6 2 -7 -6 -14 -17
-16 -16 -3 -17 -2 -5 6 13 10 13 11 0 10 -8 0 -24 -4 -35 -9 l-20 -9 20 -1
c19 -1 19 -1 2 -11 -11 -6 -24 -12 -30 -13 -7 -1 -18 -5 -25 -9 -7 -5 -22 -5
-34 -1 -17 5 -20 3 -15 -10 4 -11 1 -16 -11 -16 -10 0 -22 -4 -28 -9 -12 -12
-191 -91 -206 -91 -6 0 -4 8 5 18 20 21 22 32 6 32 -5 0 -7 -5 -3 -11 4 -8 -1
-9 -17 -4 -14 3 -19 3 -12 -2 16 -11 10 -46 -8 -51 -8 -2 -27 -10 -44 -17 -16
-7 -55 -23 -85 -36 -30 -12 -62 -29 -71 -36 -10 -9 -27 -11 -42 -8 -14 4 -28
2 -31 -3 -4 -6 3 -8 16 -6 22 5 22 4 4 -8 -70 -49 -91 -59 -94 -49 -8 23 -22
10 -16 -14 3 -14 2 -25 -3 -25 -5 0 -28 -18 -52 -40 -23 -22 -50 -40 -59 -40
-10 0 -24 -5 -32 -11 -11 -8 -9 -9 10 -3 23 6 23 5 -7 -20 -17 -14 -37 -25
-45 -23 -7 2 -10 2 -6 0 15 -8 -12 -42 -28 -36 -9 3 -14 0 -12 -8 2 -8 -2 -13
-9 -12 -8 2 -11 -65 -12 -247 l-2 -250 2561 0 2560 0 0 254 c0 213 -2 256 -15
266 -8 7 -15 18 -15 25 0 7 -7 18 -15 25 -9 7 -13 20 -10 28 3 9 0 12 -9 9
-21 -8 -100 79 -91 101 5 14 4 15 -6 5 -15 -15 -33 -17 -24 -3 3 6 0 10 -8 10
-8 0 -17 7 -21 15 -3 8 -12 15 -21 15 -11 0 -14 6 -9 25 4 15 2 25 -5 25 -6 0
-8 -7 -5 -15 9 -22 -7 -18 -36 8 -14 12 -58 46 -97 76 -40 29 -73 58 -73 63 0
6 6 5 15 -2 9 -7 18 -10 21 -7 7 7 -35 30 -57 32 -9 1 -29 10 -45 21 -16 11
-51 29 -79 38 -27 10 -59 24 -70 31 -11 7 -41 16 -65 20 -25 4 -48 13 -52 19
-6 8 -8 7 -8 -1 0 -7 -9 -13 -21 -13 -15 0 -19 5 -15 15 6 17 -29 22 -39 5 -4
-6 -16 -5 -33 1 -15 6 -52 17 -82 24 -99 24 -264 73 -291 87 -14 8 -24 20 -22
28 4 12 3 13 -5 1 -8 -11 -16 -11 -48 -1 -22 7 -51 19 -66 27 -15 7 -30 13
-33 13 -10 -1 -65 34 -65 42 0 4 7 8 15 8 8 0 15 4 15 10 0 5 -6 7 -14 4 -10
-4 -16 8 -21 47 -4 29 -14 59 -22 67 -8 8 -12 24 -10 34 4 15 2 18 -10 14 -10
-4 -13 -2 -10 8 4 10 1 13 -9 9 -9 -3 -14 2 -14 17 0 11 -4 19 -8 16 -5 -3
-19 5 -33 17 -29 26 -137 99 -161 109 -10 4 -18 12 -18 19 0 6 -7 9 -15 5 -8
-3 -21 1 -29 9 -8 8 -19 15 -25 15 -6 0 -11 5 -11 12 0 18 50 78 66 78 7 0 14
7 14 15 0 23 -11 17 -55 -28z"/>
<path d="M2470 1794 c-88 -14 -90 -15 -96 -40 -5 -19 -11 -23 -26 -18 -15 4
-19 2 -16 -7 7 -20 298 -20 321 0 23 18 21 31 -3 31 -14 0 -18 5 -13 16 5 13
-1 15 -33 14 -21 -1 -41 -1 -44 0 -8 4 -73 6 -90 4z"/>
<path d="M1925 1656 c107 -103 132 -121 230 -169 61 -30 121 -58 135 -62 14
-4 50 -28 81 -52 34 -27 62 -41 71 -38 9 4 18 2 21 -2 11 -18 93 -6 155 22 34
15 62 31 62 35 0 12 115 77 177 100 32 11 77 38 100 58 55 49 76 67 156 131
72 58 88 83 33 50 -19 -11 -41 -17 -52 -13 -13 4 -15 3 -6 -3 9 -7 -3 -20 -45
-48 -32 -22 -83 -58 -113 -80 -103 -75 -187 -107 -275 -104 -131 5 -198 2
-262 -10 -69 -13 -77 -13 -150 8 -85 25 -141 54 -189 97 -38 36 -140 126 -174
153 -14 11 -30 25 -37 31 -7 5 -18 10 -25 10 -7 0 41 -52 107 -114z"/>
<path d="M1680 1730 c0 -6 7 -10 15 -10 8 0 15 2 15 4 0 2 -7 6 -15 10 -8 3
-15 1 -15 -4z"/>
<path d="M2020 1731 c0 -23 14 -41 31 -41 12 0 19 7 19 20 0 13 -5 18 -15 14
-8 -4 -15 -1 -15 5 0 6 -4 11 -10 11 -5 0 -10 -4 -10 -9z"/>
<path d="M3388 1648 c6 -6 18 -8 28 -6 14 3 12 5 -9 10 -19 3 -25 2 -19 -4z"/>
<path d="M1695 1630 c-16 -7 -17 -9 -3 -9 9 -1 20 4 23 9 7 11 7 11 -20 0z"/>
<path d="M1620 1579 c0 -5 5 -7 10 -4 6 3 10 8 10 11 0 2 -4 4 -10 4 -5 0 -10
-5 -10 -11z"/>
<path d="M1463 1513 c-15 -5 -18 -33 -4 -33 5 0 11 -8 14 -17 2 -10 4 -1 3 19
-1 21 -1 38 -1 37 0 0 -6 -3 -12 -6z"/>
<path d="M1446 1395 c-4 -14 -3 -32 2 -40 5 -10 8 -1 9 25 2 46 -2 51 -11 15z"/>
<path d="M3718 1353 c6 -2 18 -2 25 0 6 3 1 5 -13 5 -14 0 -19 -2 -12 -5z"/>
<path d="M3665 1320 c3 -5 8 -10 11 -10 2 0 4 5 4 10 0 6 -5 10 -11 10 -5 0
-7 -4 -4 -10z"/>
<path d="M1350 1290 c0 -5 -6 -10 -14 -10 -8 0 -17 -4 -20 -9 -3 -4 6 -6 19
-3 14 2 25 11 25 18 0 8 -2 14 -5 14 -3 0 -5 -4 -5 -10z"/>
<path d="M3710 1290 c0 -5 5 -10 10 -10 6 0 10 5 10 10 0 6 -4 10 -10 10 -5 0
-10 -4 -10 -10z"/>
<path d="M3800 1270 c0 -5 5 -10 10 -10 6 0 10 5 10 10 0 6 -4 10 -10 10 -5 0
-10 -4 -10 -10z"/>
<path d="M3845 1270 c3 -5 8 -10 11 -10 2 0 4 5 4 10 0 6 -5 10 -11 10 -5 0
-7 -4 -4 -10z"/>
<path d="M1352 1255 c-19 -10 -20 -14 -8 -18 9 -4 16 -3 16 2 0 4 10 13 23 19
12 6 15 11 7 10 -8 0 -25 -6 -38 -13z"/>
<path d="M1224 1185 c-10 -8 -27 -15 -36 -15 -19 0 -26 -20 -8 -20 6 0 32 11
58 25 31 17 40 25 26 25 -11 0 -29 -7 -40 -15z"/>
<path d="M4048 1153 c7 -3 16 -2 19 1 4 3 -2 6 -13 5 -11 0 -14 -3 -6 -6z"/>
<path d="M4338 1113 c7 -3 16 -2 19 1 4 3 -2 6 -13 5 -11 0 -14 -3 -6 -6z"/>
<path d="M968 1103 c6 -2 18 -2 25 0 6 3 1 5 -13 5 -14 0 -19 -2 -12 -5z"/>
<path d="M4465 1100 c3 -5 8 -10 11 -10 2 0 4 5 4 10 0 6 -5 10 -11 10 -5 0
-7 -4 -4 -10z"/>
<path d="M800 1000 c0 -13 11 -13 30 0 12 8 11 10 -7 10 -13 0 -23 -4 -23 -10z"/>
<path d="M4590 1006 c0 -2 7 -7 16 -10 8 -3 12 -2 9 4 -6 10 -25 14 -25 6z"/>
<path d="M720 970 c0 -11 4 -20 8 -20 4 0 8 9 8 20 0 11 -4 20 -8 20 -4 0 -8
-9 -8 -20z"/>
<path d="M4690 960 c0 -11 48 -25 57 -16 4 3 -5 6 -18 7 -22 0 -23 1 -4 9 18
8 17 9 -7 9 -16 1 -28 -3 -28 -9z"/>
<path d="M455 910 c-3 -5 -1 -10 4 -10 6 0 11 5 11 10 0 6 -2 10 -4 10 -3 0
-8 -4 -11 -10z"/>
<path d="M590 909 c0 -5 5 -7 10 -4 6 3 10 8 10 11 0 2 -4 4 -10 4 -5 0 -10
-5 -10 -11z"/>
<path d="M489 882 c11 -8 11 -10 0 -15 -11 -4 -11 -6 1 -6 8 0 22 4 30 9 9 6
10 10 3 10 -6 0 -20 3 -30 6 -13 4 -15 3 -4 -4z"/>
<path d="M4796 844 c-5 -14 -4 -15 9 -4 17 14 19 20 6 20 -5 0 -12 -7 -15 -16z"/>
<path d="M240 769 c0 -5 5 -7 10 -4 6 3 10 8 10 11 0 2 -4 4 -10 4 -5 0 -10
-5 -10 -11z"/>
<path d="M162 700 c0 -14 2 -19 5 -12 2 6 2 18 0 25 -3 6 -5 1 -5 -13z"/>
<path d="M200 689 c0 -5 5 -7 10 -4 6 3 10 8 10 11 0 2 -4 4 -10 4 -5 0 -10
-5 -10 -11z"/>
<path d="M5060 655 c0 -8 7 -15 15 -15 8 0 15 7 15 15 0 8 -7 15 -15 15 -8 0
-15 -7 -15 -15z"/>
<path d="M130 636 c0 -2 7 -6 15 -10 8 -3 15 -1 15 4 0 6 -7 10 -15 10 -8 0
-15 -2 -15 -4z"/>
<path d="M5100 630 c-9 -6 -10 -10 -3 -10 6 0 15 5 18 10 8 12 4 12 -15 0z"/>
<path d="M5097 556 c10 -13 20 -20 21 -15 5 12 -17 39 -30 39 -5 0 -1 -11 9
-24z"/>
</g>
</svg>
